# xmcd CD database file
#
# Track frame offsets:
#	150
#	15912
#	30577
#	44522
#	56966
#	71401
#	83939
#	99600
#	112050
#	124933
#	139211
#	153250
#	166578
#	183050
#	197882
#	213598
#	229644
#	243374
#	256447
#	270871
#	283484
#	294287
#
# Disc length: 4115 seconds
#
# Revision: 0
# Processed by: cddbd v1.5.2PL0 Copyright (c) Steve Scherf et al.
# Submitted via: CDex 1.70beta2
#
DISCID=3b101116
DTITLE=Charlie Parker - Bebop Story Vol. 7 1949-50 CD 029
DYEAR=2008
DGENRE=Jazz
TTITLE0=Just Friends
TTITLE1=Everything Happens To Me
TTITLE2=April In Paris
TTITLE3=Summertime
TTITLE4=I Didn't Know Wha Time It Was
TTITLE5=If I Should Lose You
TTITLE6=Star Eyes
TTITLE7=Blues (Fast)
TTITLE8=I'm In The Mood For Love
TTITLE9=Dancing In Th Dark
TTITLE10=Out Of Nowhere
TTITLE11=Laura
TTITLE12=East Of The Sun
TTITLE13=They Can't Take That Away From Me
TTITLE14=Easy To Love
TTITLE15=I'm In The Mood For Love
TTITLE16=I'll Remember April
TTITLE17=What Is This Thing Called Love
TTITLE18=April In Paris
TTITLE19=Repetition
TTITLE20=Easy To Love
TTITLE21=Rocker
EXTD=YEAR: 2008
EXTT0=
EXTT1=
EXTT2=
EXTT3=
EXTT4=
EXTT5=
EXTT6=
EXTT7=
EXTT8=
EXTT9=
EXTT10=
EXTT11=
EXTT12=
EXTT13=
EXTT14=
EXTT15=
EXTT16=
EXTT17=
EXTT18=
EXTT19=
EXTT20=
EXTT21=
PLAYORDER=
